<svg width="28" height="24" viewBox="0 0 28 24" fill="none" xmlns="http://www.w3.org/2000/svg">
<path fill-rule="evenodd" clip-rule="evenodd" d="M14.3404 0.0690415C14.1228 -0.0230138 13.8772 -0.0230138 13.6596 0.0690415L0.534649 5.62156C0.210614 5.75864 0 6.07681 0 6.42923C0 6.78165 0.210614 7.09982 0.534649 7.2369L4.95833 9.10834V13.5546C4.39111 13.7019 3.85277 13.9957 3.40994 14.4394C2.73469 15.1159 2.33333 16.088 2.33333 17.2784V22.5387C2.33333 22.8301 2.4826 23.1079 2.72427 23.269C2.79324 23.3149 2.86124 23.3542 2.98103 23.4142C3.12522 23.4864 3.32752 23.5758 3.58784 23.6627C4.10972 23.837 4.85928 24 5.83333 24C6.80735 24 7.55688 23.8371 8.07874 23.6628C8.33905 23.5759 8.54134 23.4866 8.68553 23.4144C8.7985 23.3578 8.86455 23.319 8.93042 23.2771C9.17715 23.1162 9.33333 22.8347 9.33333 22.5389V17.2786C9.33333 16.0881 8.93198 15.1161 8.25675 14.4395C7.81391 13.9958 7.27556 13.702 6.70833 13.5546V9.84867L13.6596 12.7894C13.8772 12.8815 14.1228 12.8815 14.3404 12.7894L20.4167 10.2188V14.8973C20.3903 14.9271 20.3597 14.9602 20.3248 14.9962C20.1364 15.1904 19.8188 15.4697 19.334 15.7564C18.3701 16.3264 16.7036 16.9498 14 16.9498C13.2859 16.9498 12.6448 16.9063 12.0704 16.832C11.5911 16.77 11.1524 17.109 11.0906 17.5893C11.0287 18.0695 11.3671 18.509 11.8463 18.571C12.4988 18.6554 13.2149 18.7032 14 18.7032C16.9839 18.7032 18.9633 18.0116 20.2234 17.2665C20.8505 16.8957 21.2895 16.5174 21.5795 16.2185C21.7469 16.046 21.9116 15.8607 22.0376 15.6547L22.0383 15.6535C22.1223 15.5159 22.1667 15.3577 22.1667 15.1964V9.47849L27.4654 7.2369C27.7894 7.09982 28 6.78165 28 6.42923C28 6.07681 27.7894 5.75864 27.4654 5.62156L14.3404 0.0690415ZM5.83326 15.1964C5.39347 15.1964 4.9647 15.3613 4.64735 15.6793C4.33822 15.989 4.08333 16.4964 4.08333 17.2784V21.9794C4.43205 22.1024 5.01347 22.2466 5.83333 22.2466C6.65316 22.2466 7.23459 22.1025 7.58333 21.9795V17.2786C7.58333 16.4965 7.32843 15.9891 7.0193 15.6793C6.70193 15.3613 6.27307 15.1964 5.83326 15.1964ZM14 11.0301L3.12452 6.42923L14 1.82837L24.8755 6.42923L14 11.0301Z" fill="#F4EDED"/>
</svg>
