<svg width="27" height="20" viewBox="0 0 27 20" fill="none" xmlns="http://www.w3.org/2000/svg">
<path fill-rule="evenodd" clip-rule="evenodd" d="M1.96875 1.66667C1.81342 1.66667 1.6875 1.79103 1.6875 1.94444V18.0556C1.6875 18.209 1.81342 18.3333 1.96875 18.3333H25.0312C25.1866 18.3333 25.3125 18.209 25.3125 18.0556V1.94444C25.3125 1.79103 25.1866 1.66667 25.0312 1.66667H1.96875ZM0 1.94444C0 0.870558 0.881439 0 1.96875 0H25.0312C26.1186 0 27 0.870558 27 1.94444V18.0556C27 19.1294 26.1186 20 25.0312 20H1.96875C0.881439 20 0 19.1294 0 18.0556V1.94444Z" fill="#F4EDED"/>
<path d="M10.125 13.9824V6.01759C10.125 5.57806 10.6173 5.31259 10.9917 5.55027L17.264 9.53268C17.6084 9.75137 17.6084 10.2486 17.264 10.4673L10.9917 14.4497C10.6173 14.6874 10.125 14.4219 10.125 13.9824Z" fill="#F4EDED"/>
</svg>
