<svg width="32" height="30" viewBox="0 0 32 30" fill="none" xmlns="http://www.w3.org/2000/svg">
<path fill-rule="evenodd" clip-rule="evenodd" d="M0.678837 0.495468C1.2805 -0.029819 2.14033 -0.148786 2.86417 0.193106L31.0481 13.5054C31.6296 13.7801 32 14.3616 32 15C32 15.6384 31.6296 16.2199 31.0481 16.4946L2.86417 29.8069C2.14034 30.1488 1.2805 30.0298 0.678837 29.5045C0.162256 29.0535 -0.084344 28.3712 0.0258561 27.6977L2.10357 15L0.0258561 2.3023C-0.0843441 1.62883 0.162257 0.94647 0.678837 0.495468ZM4.14135 16.0834L2.24036 27.7011L29.1303 15L2.24036 2.29888L4.14135 13.9166H14.8724C15.4762 13.9166 15.9657 14.4016 15.9657 15C15.9657 15.5984 15.4762 16.0834 14.8724 16.0834H4.14135Z" fill="#F4EDED"/>
</svg>
