<svg width="22" height="20" viewBox="0 0 22 20" fill="none" xmlns="http://www.w3.org/2000/svg">
<path d="M1.53488 0.75C1.53488 0.335786 1.19129 0 0.767442 0C0.343595 0 0 0.335786 0 0.75V19.25C0 19.6642 0.343595 20 0.767442 20H19.4419C19.8657 20 20.2093 19.6642 20.2093 19.25C20.2093 18.8358 19.8657 18.5 19.4419 18.5H1.53488V0.75Z" fill="#F4EDED"/>
<path d="M21.7752 5.78033C22.0749 5.48744 22.0749 5.01256 21.7752 4.71967C21.4755 4.42678 20.9896 4.42678 20.6899 4.71967L14.8372 10.4393L11.031 6.71967C10.7313 6.42678 10.2454 6.42678 9.94571 6.71967L3.80617 12.7197C3.50647 13.0126 3.50647 13.4874 3.80617 13.7803C4.10588 14.0732 4.5918 14.0732 4.8915 13.7803L10.4884 8.31066L14.2945 12.0303C14.5943 12.3232 15.0802 12.3232 15.3799 12.0303L21.7752 5.78033Z" fill="#F4EDED"/>
</svg>
