<svg width="24" height="32" viewBox="0 0 24 32" fill="none" xmlns="http://www.w3.org/2000/svg">
<path fill-rule="evenodd" clip-rule="evenodd" d="M0 3.74317C0 1.67587 1.64162 0 3.66667 0H23C23.5523 0 24 0.457056 24 1.02086V28.9245C24 29.4883 23.5523 29.9453 23 29.9453H15C14.4477 29.9453 14 29.4883 14 28.9245C14 28.3607 14.4477 27.9036 15 27.9036H22V22.459H4C2.89543 22.459 2 23.3731 2 24.5007V25.5216C2 26.4968 2.57419 27.3373 3.40037 27.7059C3.90646 27.9316 4.13747 28.5334 3.91635 29.05C3.69523 29.5667 3.10572 29.8025 2.59963 29.5768C1.07127 28.8951 0 27.3372 0 25.5216V3.74317ZM22 2.04173V20.4173H4C3.27143 20.4173 2.58835 20.6161 2 20.9636V3.74317C2 2.80349 2.74619 2.04173 3.66667 2.04173H22Z" fill="#F4EDED"/>
<path d="M5.33333 24.841C5.33333 24.6531 5.48257 24.5007 5.66667 24.5007H12.3333C12.5174 24.5007 12.6667 24.6531 12.6667 24.841V31.6591C12.6667 31.9372 12.3576 32.0979 12.1373 31.9343L9.19606 29.7506C9.07917 29.6638 8.92083 29.6638 8.80394 29.7506L5.86272 31.9343C5.6424 32.0979 5.33333 31.9372 5.33333 31.6591V24.841Z" fill="#F4EDED"/>
</svg>
