<svg width="24" height="31" viewBox="0 0 24 31" fill="none" xmlns="http://www.w3.org/2000/svg">
<path fill-rule="evenodd" clip-rule="evenodd" d="M3.94868 3.35044C4.12333 3.87438 3.84017 4.4407 3.31623 4.61535L2.22792 4.97812C2.09181 5.02349 2 5.15087 2 5.29434V28.3333C2 28.5174 2.14924 28.6667 2.33333 28.6667H21.6667C21.8508 28.6667 22 28.5174 22 28.3333V5.29435C22 5.15087 21.9082 5.02349 21.7721 4.97812L20.6838 4.61535C20.1598 4.4407 19.8767 3.87438 20.0513 3.35044C20.226 2.8265 20.7923 2.54334 21.3162 2.71798L22.4045 3.08075C23.3573 3.39835 24 4.29001 24 5.29435V28.3333C24 29.622 22.9553 30.6667 21.6667 30.6667H2.33333C1.04467 30.6667 0 29.622 0 28.3333V5.29434C0 4.29001 0.642671 3.39835 1.59547 3.08075L2.68377 2.71798C3.20772 2.54334 3.77404 2.8265 3.94868 3.35044Z" fill="#F4EDED"/>
<path fill-rule="evenodd" clip-rule="evenodd" d="M5.33333 2.33333C5.33333 1.04467 6.378 0 7.66667 0H16.3333C17.622 0 18.6667 1.04467 18.6667 2.33333V4.33333C18.6667 5.622 17.622 6.66667 16.3333 6.66667H7.66667C6.378 6.66667 5.33333 5.622 5.33333 4.33333V2.33333ZM7.66667 2C7.48257 2 7.33333 2.14924 7.33333 2.33333V4.33333C7.33333 4.51743 7.48257 4.66667 7.66667 4.66667H16.3333C16.5174 4.66667 16.6667 4.51743 16.6667 4.33333V2.33333C16.6667 2.14924 16.5174 2 16.3333 2H7.66667Z" fill="#F4EDED"/>
</svg>
