<svg width="140" height="140" viewBox="0 0 140 140" fill="none" xmlns="http://www.w3.org/2000/svg">
<path fill-rule="evenodd" clip-rule="evenodd" d="M48.0113 105.375C47.5254 104.119 47.8265 102.693 48.7794 101.741L101.741 48.779C102.694 47.8261 104.119 47.525 105.376 48.0109C106.633 48.4968 107.485 49.6784 107.549 51.0244L109.091 83.4125L117.79 92.1111C120.892 95.2134 120.892 100.243 117.79 103.345L103.346 117.789C100.244 120.892 95.2138 120.892 92.1115 117.789L83.4129 109.091L51.0248 107.548C49.6788 107.484 48.4972 106.632 48.0113 105.375ZM59.036 101.113L85.0515 102.352C85.8974 102.392 86.698 102.747 87.2969 103.345L96.9262 112.975C97.3694 113.418 98.0879 113.418 98.5311 112.975L112.975 98.5307C113.418 98.0875 113.418 97.369 112.975 96.9258L103.346 87.2965C102.747 86.6976 102.393 85.897 102.353 85.0511L101.114 59.0356L59.036 101.113Z" fill="#F4EDED"/>
<g clip-path="url(#clip0_66_89)">
<path fill-rule="evenodd" clip-rule="evenodd" d="M41.6436 78.6928C41.2114 78.4916 40.8442 78.1735 40.5835 77.7745C40.3227 77.3754 40.1789 76.9114 40.1683 76.4348L39.8492 61.9558L27.7391 54.011C27.3407 53.7498 27.0233 53.3823 26.8232 52.9503C26.6227 52.5181 26.547 52.0385 26.6051 51.5658C26.6629 51.0929 26.8518 50.6457 27.1506 50.2747C27.4491 49.9036 27.8456 49.6235 28.2954 49.4661L41.9668 44.6836L45.7786 30.7143C45.9039 30.2547 46.1551 29.8391 46.5043 29.5148C46.8534 29.1904 47.2862 28.9703 47.7539 28.8792C48.2216 28.7881 48.7056 28.8297 49.1508 28.9993C49.5961 29.169 49.985 29.4596 50.2737 29.8387L59.0458 41.3658L73.5147 40.6739C73.9902 40.6514 74.4626 40.7623 74.8784 40.9942C75.2942 41.226 75.637 41.5694 75.8681 41.9856C76.099 42.402 76.2089 42.8747 76.1854 43.3502C76.162 43.8257 76.0062 44.285 75.7354 44.6767L67.4804 56.5821L72.6143 70.128C72.7837 70.5739 72.8248 71.0583 72.733 71.5264C72.6412 71.9944 72.4201 72.4274 72.0948 72.7762C71.7696 73.125 71.3531 73.3758 70.8926 73.5001C70.4321 73.6243 69.946 73.6171 69.4894 73.4792L55.6199 69.3082L44.3215 78.3711C43.9497 78.6694 43.5018 78.8575 43.0285 78.9144C42.5552 78.9712 42.0755 78.8945 41.6436 78.6928ZM45.1609 71.1484L53.4696 64.4856C53.7922 64.2269 54.1728 64.0505 54.5787 63.9714C54.9846 63.8924 55.4036 63.9131 55.7997 64.0318L66.0033 67.0985L62.2333 57.1371C62.0864 56.7499 62.036 56.3327 62.0863 55.9217C62.1366 55.5106 62.2861 55.1179 62.522 54.7775L68.5877 46.021L57.949 46.5303C57.5355 46.5501 57.1235 46.4688 56.7483 46.2939C56.3731 46.119 56.046 45.8557 55.7953 45.5262L49.3426 37.0487L46.5415 47.3272C46.4323 47.7267 46.2277 48.0937 45.9453 48.3966C45.6626 48.6993 45.3106 48.9288 44.9198 49.0654L34.8676 52.579L43.7734 58.4212C44.1189 58.6483 44.4042 58.9559 44.6046 59.3176C44.805 59.6793 44.9145 60.0843 44.9239 60.4977L45.1594 71.1515L45.1609 71.1484Z" fill="#F4EDED"/>
</g>
<defs>
<clipPath id="clip0_66_89">
<rect width="54.4719" height="54.4719" fill="white" transform="translate(65.969 90.9726) rotate(-155.005)"/>
</clipPath>
</defs>
</svg>
