<svg width="33" height="25" viewBox="0 0 33 25" fill="none" xmlns="http://www.w3.org/2000/svg">
<path fill-rule="evenodd" clip-rule="evenodd" d="M14.2809 0.423205C14.6482 0.58572 14.8852 0.949629 14.8852 1.35134V23.6791C14.8852 24.0808 14.6482 24.4447 14.2809 24.6072C13.9135 24.7698 13.4848 24.7003 13.1876 24.4301L6.03532 17.928H2.3681C1.06023 17.928 0 16.8678 0 15.5599V9.47053C0 8.16267 1.06023 7.10243 2.3681 7.10243H6.03532L13.1876 0.60038C13.4848 0.330158 13.9135 0.26069 14.2809 0.423205ZM12.8554 3.64557L7.11038 8.8683C6.92357 9.03813 6.68016 9.13223 6.42769 9.13223H2.3681C2.18126 9.13223 2.0298 9.28369 2.0298 9.47053V15.5599C2.0298 15.7468 2.18126 15.8982 2.3681 15.8982H6.42769C6.68016 15.8982 6.92357 15.9923 7.11038 16.1622L12.8554 21.3849V3.64557Z" fill="#F4EDED"/>
<path fill-rule="evenodd" clip-rule="evenodd" d="M21.0187 5.0547C21.1522 5.006 21.2967 4.99564 21.4358 5.0248C21.5749 5.05395 21.703 5.12146 21.8057 5.21967L24.925 8.20449L29.1524 7.32646C29.2915 7.29755 29.4358 7.30811 29.5691 7.35699C29.7024 7.40582 29.8195 7.49097 29.9069 7.60285C29.9944 7.71472 30.0488 7.84882 30.0641 7.99C30.0794 8.13116 30.0548 8.27378 29.9932 8.40176L28.1195 12.2917L30.2606 16.0398C30.3311 16.1631 30.3657 16.3036 30.3605 16.4456C30.3553 16.5876 30.3104 16.7252 30.2311 16.843C30.1517 16.9608 30.0409 17.0541 29.9113 17.1122C29.7816 17.1703 29.6384 17.191 29.4976 17.1719L25.2187 16.5912L22.3147 19.787C22.2191 19.8919 22.0962 19.9681 21.9597 20.0069C21.8232 20.0457 21.6785 20.0456 21.5421 20.0066C21.4056 19.9674 21.2828 19.891 21.1875 19.7858C21.0922 19.6806 21.0283 19.551 21.0028 19.4113L20.2333 15.1617L16.2957 13.3885C16.166 13.3302 16.0553 13.2367 15.9759 13.1187C15.8966 13.0007 15.852 12.8629 15.847 12.7208C15.842 12.5787 15.877 12.438 15.9479 12.3147C16.0187 12.1915 16.1227 12.0905 16.248 12.0233L20.0508 9.97898L20.522 5.68699C20.5376 5.54574 20.5923 5.41165 20.6801 5.29991C20.7679 5.18816 20.8852 5.10322 21.0187 5.0547ZM21.8676 7.38641L21.5207 10.5423C21.5072 10.6648 21.4641 10.7822 21.3953 10.8845C21.3264 10.9867 21.2337 11.0706 21.1252 11.1291L18.3279 12.6335L21.2224 13.9386C21.3349 13.9893 21.4335 14.0666 21.5096 14.1638C21.5856 14.2611 21.6369 14.3754 21.6589 14.4969L22.2261 17.6213L24.3613 15.2714C24.4443 15.18 24.5483 15.1103 24.6642 15.0681C24.7802 15.0259 24.9046 15.0124 25.0269 15.029L28.1741 15.4558L26.5979 12.6988C26.5367 12.5915 26.5025 12.471 26.4982 12.3477C26.494 12.2243 26.5198 12.1017 26.5734 11.9905L27.9517 9.13097L24.8429 9.77672C24.7222 9.8017 24.5972 9.79698 24.4787 9.76298C24.3602 9.72898 24.2518 9.66671 24.1627 9.58153L21.8673 7.38546L21.8676 7.38641Z" fill="#F4EDED"/>
</svg>
