<svg width="139" height="191" viewBox="0 0 139 191" fill="none" xmlns="http://www.w3.org/2000/svg">
<path d="M73.0941 53.4576H67.8843C65.5542 53.4576 63.6653 55.3465 63.6653 57.6767V76.0288V94.3809C63.6653 96.7111 65.5542 98.5999 67.8843 98.5999H77.0604C84.4463 98.5999 90.4555 92.5911 90.4555 85.2048C90.4555 80.5301 88.0468 76.4094 84.4071 74.0121C85.7234 71.9393 86.4896 69.4846 86.4896 66.8527C86.4892 59.4669 80.4799 53.4576 73.0941 53.4576ZM72.1034 61.8958H73.0941C75.8276 61.8958 78.051 64.1196 78.051 66.8527C78.051 69.5859 75.8272 71.8097 73.0941 71.8097H72.1034V61.8958ZM77.0604 90.1618H72.1034V80.2479H73.0941H77.0604C79.7935 80.2479 82.0174 82.4717 82.0174 85.2048C82.017 87.9384 79.7935 90.1618 77.0604 90.1618Z" fill="#F9F9F9"/>
<path d="M104.811 61.897C107.544 61.897 109.768 64.1209 109.768 66.8544C109.768 69.1846 111.657 71.0735 113.987 71.0735C116.318 71.0735 118.206 69.1846 118.206 66.8544C118.206 59.4681 112.197 53.4589 104.811 53.4589C97.4246 53.4589 91.4154 59.4681 91.4154 66.8544V85.2032C91.4154 92.5895 97.4246 98.5987 104.811 98.5987C112.197 98.5987 118.206 92.5895 118.206 85.2032C118.206 82.873 116.318 80.9841 113.987 80.9841C111.657 80.9841 109.768 82.873 109.768 85.2032C109.768 87.9367 107.544 90.1606 104.811 90.1606C102.077 90.1606 99.8535 87.9367 99.8535 85.2032V66.8544C99.8535 64.1209 102.077 61.897 104.811 61.897Z" fill="#F9F9F9"/>
<path d="M37.5138 98.4658C37.8682 98.5573 38.2235 98.6012 38.5733 98.6012C40.4503 98.6012 42.1633 97.3393 42.6552 95.4373L44.0298 90.1222H52.0958L53.4703 95.4378C54.0538 97.6937 56.3558 99.0489 58.6117 98.4658C60.8676 97.8823 62.2236 95.5808 61.6401 93.3249L52.1477 56.6207C51.6659 54.7588 49.9862 53.4581 48.0628 53.4581C46.1393 53.4581 44.4597 54.7588 43.9779 56.6207L34.4854 93.3249C33.9019 95.5804 35.2579 97.8823 37.5138 98.4658ZM49.9133 81.6836H46.2119L48.0628 74.5272L49.9133 81.6836Z" fill="#F9F9F9"/>
<path d="M113.987 102.186H38.5703C36.2401 102.186 34.3512 104.075 34.3512 106.405C34.3512 108.735 36.2401 110.624 38.5703 110.624H113.987C116.317 110.624 118.206 108.735 118.206 106.405C118.206 104.075 116.317 102.186 113.987 102.186Z" fill="#F9F9F9"/>
<path d="M38.5703 49.2395H113.987C116.317 49.2395 118.206 47.3506 118.206 45.0204C118.206 42.6902 116.317 40.8013 113.987 40.8013H38.5703C36.2401 40.8013 34.3512 42.6902 34.3512 45.0204C34.3512 47.3506 36.2401 49.2395 38.5703 49.2395Z" fill="#F9F9F9"/>
<path d="M134.227 0H23.4116C10.8072 0 0.552734 10.2544 0.552734 22.8589V168.141C0.552734 180.745 10.8072 191 23.4116 191H134.227C136.557 191 138.446 189.111 138.446 186.781V4.21906C138.447 1.88888 136.558 0 134.227 0ZM130.008 145.282H27.6307V8.43813H130.008V145.282H130.008ZM19.193 9.0693V145.679C15.3756 146.394 11.8894 148.058 8.99128 150.421V22.8589C8.99128 16.375 13.2935 10.8776 19.193 9.0693ZM23.412 182.562C15.4604 182.562 8.99128 176.093 8.99128 168.141C8.99128 160.189 15.4604 153.72 23.412 153.72H130.008V158.015H32.694C30.3638 158.015 28.4749 159.904 28.4749 162.234C28.4749 164.564 30.3638 166.453 32.694 166.453H130.009V169.828H104.418C102.088 169.828 100.199 171.717 100.199 174.047C100.199 176.378 102.088 178.266 104.418 178.266H130.009V182.562H23.412Z" fill="#F9F9F9"/>
</svg>
