<svg width="24" height="24" viewBox="0 0 24 24" fill="none" xmlns="http://www.w3.org/2000/svg">
<path d="M17.249 9.68382C17.5547 9.3782 17.5547 8.88267 17.249 8.57705C16.9434 8.27142 16.4479 8.27142 16.1423 8.57705L10.4348 14.2845L7.85774 11.7075C7.55211 11.4019 7.05659 11.4019 6.75096 11.7075C6.44533 12.0131 6.44533 12.5086 6.75096 12.8143L9.88139 15.9447C10.187 16.2503 10.6825 16.2503 10.9882 15.9447L17.249 9.68382Z" fill="#F9F9F9"/>
<path fill-rule="evenodd" clip-rule="evenodd" d="M14.2289 0.73031C12.9025 -0.243436 11.0975 -0.243437 9.77112 0.730309L8.33599 1.78388C8.05004 1.99381 7.71759 2.13151 7.36696 2.18527L5.60718 2.45507C3.98074 2.70443 2.70443 3.98074 2.45507 5.60718L2.18527 7.36696C2.13151 7.71759 1.99381 8.05004 1.78388 8.33599L0.730309 9.77112C-0.243436 11.0975 -0.243437 12.9025 0.730309 14.2289L1.78388 15.664C1.99381 15.95 2.13151 16.2824 2.18527 16.633L2.45507 18.3928C2.70443 20.0193 3.98074 21.2956 5.60718 21.5449L7.36696 21.8147C7.71759 21.8685 8.05004 22.0062 8.33599 22.2161L9.77112 23.2697C11.0975 24.2434 12.9025 24.2434 14.2289 23.2697L15.664 22.2161C15.95 22.0062 16.2824 21.8685 16.633 21.8147L18.3928 21.5449C20.0193 21.2956 21.2956 20.0193 21.5449 18.3928L21.8147 16.633C21.8685 16.2824 22.0062 15.95 22.2161 15.664L23.2697 14.2289C24.2434 12.9025 24.2434 11.0975 23.2697 9.77112L22.2161 8.33599C22.0062 8.05005 21.8685 7.71759 21.8147 7.36696L21.5449 5.60718C21.2956 3.98074 20.0193 2.70443 18.3928 2.45507L16.633 2.18527C16.2824 2.13151 15.95 1.99381 15.664 1.78388L14.2289 0.73031ZM10.6974 1.99203C11.4726 1.42295 12.5274 1.42295 13.3026 1.99203L14.7377 3.0456C15.227 3.4048 15.7959 3.64042 16.3958 3.73241L18.1556 4.00221C19.1062 4.14794 19.8521 4.89385 19.9978 5.84438L20.2676 7.60416C20.3596 8.20412 20.5952 8.77298 20.9544 9.26226L22.008 10.6974C22.5771 11.4726 22.5771 12.5274 22.008 13.3026L20.9544 14.7377C20.5952 15.227 20.3596 15.7959 20.2676 16.3958L19.9978 18.1556C19.8521 19.1062 19.1062 19.8521 18.1556 19.9978L16.3958 20.2676C15.7959 20.3596 15.227 20.5952 14.7377 20.9544L13.3026 22.008C12.5274 22.5771 11.4726 22.5771 10.6974 22.008L9.26226 20.9544C8.77298 20.5952 8.20413 20.3596 7.60416 20.2676L5.84438 19.9978C4.89385 19.8521 4.14794 19.1062 4.00221 18.1556L3.73241 16.3958C3.64042 15.7959 3.4048 15.227 3.0456 14.7377L1.99203 13.3026C1.42295 12.5274 1.42295 11.4726 1.99203 10.6974L3.0456 9.26226C3.4048 8.77298 3.64042 8.20413 3.73241 7.60416L4.00221 5.84438C4.14794 4.89385 4.89385 4.14794 5.84438 4.00221L7.60416 3.73241C8.20413 3.64042 8.77298 3.4048 9.26226 3.0456L10.6974 1.99203Z" fill="#F9F9F9"/>
</svg>
