<svg width="20" height="16" viewBox="0 0 20 16" fill="none" xmlns="http://www.w3.org/2000/svg">
<path fill-rule="evenodd" clip-rule="evenodd" d="M9.59402 0.0570034C9.84082 0.163756 10 0.402801 10 0.666679V15.3333C10 15.5972 9.84082 15.8362 9.59402 15.943C9.34721 16.0497 9.05924 16.0041 8.85955 15.8266L4.05459 11.5555H1.59091C0.712275 11.5555 0 10.8591 0 10V6C0 5.14089 0.712275 4.44445 1.59091 4.44445H4.05459L8.85955 0.173386C9.05924 -0.00411749 9.34721 -0.0497494 9.59402 0.0570034ZM8.63637 2.17371L4.77682 5.60441C4.65132 5.71597 4.4878 5.77778 4.31818 5.77778H1.59091C1.46539 5.77778 1.36364 5.87727 1.36364 6V10C1.36364 10.1227 1.46539 10.2222 1.59091 10.2222H4.31818C4.4878 10.2222 4.65132 10.284 4.77682 10.3956L8.63637 13.8263V2.17371Z" fill="#F9F9F9"/>
<path d="M16.1068 1.08607C16.3731 0.825716 16.8048 0.825716 17.0711 1.08607C20.9763 4.90452 20.9763 11.0955 17.0711 14.9139C16.8048 15.1743 16.3731 15.1743 16.1068 14.9139C15.8406 14.6536 15.8406 14.2315 16.1068 13.9711C19.4795 10.6733 19.4795 5.32663 16.1068 2.02887C15.8406 1.76852 15.8406 1.34641 16.1068 1.08607Z" fill="#F9F9F9"/>
<path d="M13.8569 4.22878C13.5907 3.96843 13.159 3.96843 12.8927 4.22878C12.6264 4.48912 12.6264 4.91123 12.8927 5.17158C14.4903 6.73368 14.4903 9.26633 12.8927 10.8284C12.6264 11.0888 12.6264 11.5109 12.8927 11.7712C13.159 12.0316 13.5907 12.0316 13.8569 11.7712C15.9871 9.68844 15.9871 6.31157 13.8569 4.22878Z" fill="#F9F9F9"/>
</svg>
