<svg width="24" height="24" viewBox="0 0 24 24" fill="none" xmlns="http://www.w3.org/2000/svg">
<path d="M13.0435 16.6957C13.0435 17.2719 12.5763 17.7391 12 17.7391C11.4237 17.7391 10.9565 17.2719 10.9565 16.6957C10.9565 16.1194 11.4237 15.6522 12 15.6522C12.5763 15.6522 13.0435 16.1194 13.0435 16.6957Z" fill="#F9F9F9"/>
<path d="M10.4174 8.69782C10.534 8.46457 10.6966 8.25513 10.9259 8.10226C11.1504 7.95265 11.4848 7.82609 12 7.82609C12.4006 7.82609 12.7998 7.94902 13.0793 8.1587C13.338 8.3527 13.5 8.61923 13.5 9C13.5 9.50027 13.2721 9.84541 12.8519 10.2377C12.708 10.3719 12.5742 10.4835 12.4261 10.607C12.3317 10.6857 12.2315 10.7692 12.1192 10.8665C11.8626 11.0889 11.5724 11.361 11.3488 11.6965L11.2174 11.8936V13.5652C11.2174 13.9974 11.5678 14.3478 12 14.3478C12.4322 14.3478 12.7826 13.9974 12.7826 13.5652V12.3965C12.8756 12.2918 12.9946 12.1792 13.1444 12.0493C13.2107 11.9919 13.2901 11.9253 13.376 11.8535C13.5499 11.7079 13.7501 11.5404 13.9198 11.3819C14.4778 10.8611 15.0652 10.1302 15.0652 9C15.0652 8.07642 14.6293 7.36469 14.0185 6.90652C13.4285 6.46403 12.6863 6.26087 12 6.26087C11.2109 6.26087 10.567 6.4604 10.0577 6.79992C9.55334 7.13617 9.22685 7.5789 9.01738 7.99783C8.82409 8.38442 8.98079 8.85452 9.36738 9.04781C9.75397 9.24111 10.2241 9.08441 10.4174 8.69782Z" fill="#F9F9F9"/>
<path fill-rule="evenodd" clip-rule="evenodd" d="M9.77112 0.730309C11.0975 -0.243437 12.9025 -0.243436 14.2289 0.73031L15.664 1.78388C15.95 1.99381 16.2824 2.13151 16.633 2.18527L18.3928 2.45507C20.0193 2.70443 21.2956 3.98074 21.5449 5.60718L21.8147 7.36696C21.8685 7.71759 22.0062 8.05005 22.2161 8.33599L23.2697 9.77112C24.2434 11.0975 24.2434 12.9025 23.2697 14.2289L22.2161 15.664C22.0062 15.95 21.8685 16.2824 21.8147 16.633L21.5449 18.3928C21.2956 20.0193 20.0193 21.2956 18.3928 21.5449L16.633 21.8147C16.2824 21.8685 15.95 22.0062 15.664 22.2161L14.2289 23.2697C12.9025 24.2434 11.0975 24.2434 9.77112 23.2697L8.33599 22.2161C8.05004 22.0062 7.71759 21.8685 7.36696 21.8147L5.60718 21.5449C3.98074 21.2956 2.70443 20.0193 2.45507 18.3928L2.18527 16.633C2.13151 16.2824 1.99381 15.95 1.78388 15.664L0.730309 14.2289C-0.243437 12.9025 -0.243436 11.0975 0.730309 9.77112L1.78388 8.33599C1.99381 8.05004 2.13151 7.71759 2.18527 7.36696L2.45507 5.60718C2.70443 3.98074 3.98074 2.70443 5.60718 2.45507L7.36696 2.18527C7.71759 2.13151 8.05004 1.99381 8.33599 1.78388L9.77112 0.730309ZM13.3026 1.99203C12.5274 1.42295 11.4726 1.42295 10.6974 1.99203L9.26226 3.0456C8.77298 3.4048 8.20413 3.64042 7.60416 3.73241L5.84438 4.00221C4.89385 4.14794 4.14794 4.89385 4.00221 5.84438L3.73241 7.60416C3.64042 8.20413 3.4048 8.77298 3.0456 9.26226L1.99203 10.6974C1.42295 11.4726 1.42295 12.5274 1.99203 13.3026L3.0456 14.7377C3.4048 15.227 3.64042 15.7959 3.73241 16.3958L4.00221 18.1556C4.14794 19.1062 4.89385 19.8521 5.84438 19.9978L7.60416 20.2676C8.20413 20.3596 8.77298 20.5952 9.26226 20.9544L10.6974 22.008C11.4726 22.5771 12.5274 22.5771 13.3026 22.008L14.7377 20.9544C15.227 20.5952 15.7959 20.3596 16.3958 20.2676L18.1556 19.9978C19.1062 19.8521 19.8521 19.1062 19.9978 18.1556L20.2676 16.3958C20.3596 15.7959 20.5952 15.227 20.9544 14.7377L22.008 13.3026C22.5771 12.5274 22.5771 11.4726 22.008 10.6974L20.9544 9.26226C20.5952 8.77298 20.3596 8.20412 20.2676 7.60416L19.9978 5.84438C19.8521 4.89385 19.1062 4.14794 18.1556 4.00221L16.3958 3.73241C15.7959 3.64042 15.227 3.4048 14.7377 3.0456L13.3026 1.99203Z" fill="#F9F9F9"/>
</svg>
