<svg width="20" height="22" viewBox="0 0 20 22" fill="none" xmlns="http://www.w3.org/2000/svg">
<path d="M14.5308 10.9999L19.0616 6.01601C20.3127 4.63979 20.3127 2.4083 19.0616 1.03208C17.8105 -0.344147 15.7819 -0.344147 14.5308 1.03208L9.99991 6.01601L5.46906 1.03211C4.21795 -0.344111 2.18932 -0.344111 0.938211 1.03211C-0.3129 2.40833 -0.3129 4.63982 0.938211 6.01605L5.46906 10.9999L0.938244 15.9839C-0.312867 17.3601 -0.312867 19.5916 0.938244 20.9678C2.18936 22.344 4.21798 22.344 5.46909 20.9678L9.99991 15.9839L14.5308 20.9678C15.7818 22.344 17.8105 22.344 19.0616 20.9678C20.3127 19.5916 20.3127 17.3601 19.0616 15.9839L14.5308 10.9999Z" fill="#6667AB"/>
</svg>
