<svg width="22" height="22" viewBox="0 0 22 22" fill="none" xmlns="http://www.w3.org/2000/svg">
<path fill-rule="evenodd" clip-rule="evenodd" d="M11 0.656006C4.9225 0.656006 0 5.30187 0 11.0378C0 15.6318 3.14875 19.512 7.52125 20.8876C8.07125 20.9784 8.2775 20.667 8.2775 20.3944C8.2775 20.1479 8.26375 19.3303 8.26375 18.4608C5.5 18.941 4.785 17.8249 4.565 17.241C4.44125 16.9425 3.905 16.0211 3.4375 15.7745C3.0525 15.5799 2.5025 15.0997 3.42375 15.0867C4.29 15.0738 4.90875 15.8394 5.115 16.1509C6.105 17.7211 7.68625 17.2799 8.31875 17.0074C8.415 16.3325 8.70375 15.8783 9.02 15.6188C6.5725 15.3593 4.015 14.4638 4.015 10.4928C4.015 9.36375 4.44125 8.42939 5.1425 7.70266C5.0325 7.44312 4.6475 6.37898 5.2525 4.95148C5.2525 4.95148 6.17375 4.67896 8.2775 6.01562C9.1575 5.78203 10.0925 5.66523 11.0275 5.66523C11.9625 5.66523 12.8975 5.78203 13.7775 6.01562C15.8813 4.66598 16.8025 4.95148 16.8025 4.95148C17.4075 6.37898 17.0225 7.44312 16.9125 7.70266C17.6138 8.42939 18.04 9.35078 18.04 10.4928C18.04 14.4768 15.4688 15.3593 13.0213 15.6188C13.42 15.9432 13.7638 16.5661 13.7638 17.5394C13.7638 18.928 13.75 20.044 13.75 20.3944C13.75 20.667 13.9563 20.9914 14.5063 20.8876C18.8512 19.512 22 15.6188 22 11.0378C22 5.30187 17.0775 0.656006 11 0.656006Z" fill="#F9F9F9"/>
</svg>
