<svg width="33" height="27" viewBox="0 0 33 27" fill="none" xmlns="http://www.w3.org/2000/svg">
<path d="M33 9.36823C33 13.1791 30.7662 16.2898 26.1707 18.8781C20.3726 22.144 17.5241 26.0755 17.496 26.1149C17.2732 26.4268 16.8996 26.6138 16.4999 26.6138C16.1006 26.6138 15.7274 26.4271 15.5046 26.1159C15.4611 26.0554 12.5805 22.1175 6.82925 18.8781C2.23382 16.2898 0 13.179 0 9.36823C0 4.82669 3.15089 3.5073e-09 8.99014 3.5073e-09C12.9017 3.5073e-09 15.2727 1.62698 16.5001 2.84575C17.7274 1.62683 20.0985 3.5073e-09 24.01 3.5073e-09C29.8493 -0.000150239 33 4.82669 33 9.36823Z" fill="white"/>
</svg>
