<svg width="18" height="19" viewBox="0 0 18 19" fill="none" xmlns="http://www.w3.org/2000/svg">
<path fill-rule="evenodd" clip-rule="evenodd" d="M8.02953 0.356236C8.58933 -0.118746 9.41067 -0.118745 9.97047 0.356236L17.4705 6.71987C17.8064 7.00488 18 7.42312 18 7.86364V17.2664C18 18.0948 17.3284 18.7664 16.5 18.7664H10.75C10.3358 18.7664 10 18.4306 10 18.0164V11.7664H8V18.0164C8 18.4306 7.66421 18.7664 7.25 18.7664H1.5C0.671573 18.7664 0 18.0948 0 17.2664V7.86364C0 7.42312 0.193637 7.00488 0.529534 6.71987L8.02953 0.356236ZM9 1.5L1.5 7.86364L1.5 17.2664H6.5V11.0164C6.5 10.6022 6.83579 10.2664 7.25 10.2664H10.75C11.1642 10.2664 11.5 10.6022 11.5 11.0164V17.2664H16.5V7.86364L9 1.5Z" fill="#F4EDED"/>
</svg>
