<svg width="38" height="28" viewBox="0 0 38 28" fill="none" xmlns="http://www.w3.org/2000/svg">
<path fill-rule="evenodd" clip-rule="evenodd" d="M24.1906 6.42968C24.4688 6.54636 24.6406 6.76411 24.6406 7.00001V21C24.6406 21.2359 24.4688 21.4536 24.1906 21.5703C23.9124 21.687 23.5706 21.6847 23.2953 21.5643L14.0055 17.5H11.875C10.0714 17.5 8.60938 16.4227 8.60938 15.0938V12.9063C8.60938 11.5773 10.0714 10.5 11.875 10.5H14.0055L23.2953 6.43572C23.5706 6.31527 23.9124 6.313 24.1906 6.42968ZM22.8594 8.15286L14.7047 11.7205C14.5671 11.7807 14.41 11.8125 14.25 11.8125H11.875C11.0552 11.8125 10.3906 12.3022 10.3906 12.9063V15.0938C10.3906 15.6978 11.0552 16.1875 11.875 16.1875H14.25C14.41 16.1875 14.5671 16.2193 14.7047 16.2795L22.8594 19.8471V8.15286Z" fill="#6667AB"/>
<path d="M32.6923 11.7859C33.04 12.0422 33.04 12.4578 32.6923 12.7141L30.947 14L32.6923 15.2859C33.04 15.5422 33.04 15.9578 32.6923 16.2141C32.3445 16.4703 31.7805 16.4703 31.4327 16.2141L29.6875 14.9281L27.9423 16.2141C27.5945 16.4703 27.0305 16.4703 26.6827 16.2141C26.3349 15.9578 26.3349 15.5422 26.6827 15.2859L28.428 14L26.6827 12.7141C26.3349 12.4578 26.3349 12.0422 26.6827 11.7859C27.0305 11.5297 27.5945 11.5297 27.9423 11.7859L29.6875 13.0719L31.4327 11.7859C31.7805 11.5297 32.3445 11.5297 32.6923 11.7859Z" fill="#6667AB"/>
</svg>
