<svg width="100" height="35" viewBox="0 0 100 35" fill="none" xmlns="http://www.w3.org/2000/svg">
<path d="M49.8074 10.9946L54.5627 10.7124C54.6664 11.4433 54.8762 11.9997 55.1922 12.3816C55.7083 13.0007 56.4439 13.3102 57.3989 13.3102C58.1116 13.3102 58.6615 13.1523 59.0486 12.8365C59.2258 12.7054 59.3698 12.5384 59.47 12.3478C59.5701 12.1573 59.6239 11.9479 59.6274 11.7351C59.6244 11.5311 59.5743 11.3302 59.4806 11.1465C59.3869 10.9627 59.2518 10.8006 59.0847 10.6714C58.723 10.359 57.8698 10.0631 56.5253 9.78378C54.333 9.3186 52.7696 8.6995 51.835 7.92649C51.3803 7.56633 51.0171 7.11395 50.7726 6.60294C50.528 6.09192 50.4083 5.53539 50.4224 4.97465C50.4258 4.18224 50.6776 3.40857 51.1459 2.75137C51.6807 2.01067 52.4362 1.43685 53.3165 1.10273C54.2812 0.702537 55.6076 0.502441 57.2958 0.502441C59.3627 0.502441 60.9388 0.866147 62.0241 1.59356C63.1093 2.32097 63.7551 3.47708 63.9613 5.06188L59.2493 5.32183C59.1288 4.63774 58.8659 4.13722 58.4607 3.82026C58.0555 3.5033 57.5008 3.34539 56.7966 3.34653C56.216 3.34653 55.7782 3.46453 55.4852 3.69712C55.3468 3.79775 55.2349 3.92733 55.1584 4.07568C55.0818 4.22404 55.0426 4.38715 55.0439 4.55223C55.0483 4.68033 55.083 4.80586 55.1457 4.91954C55.2083 5.03321 55.2971 5.13212 55.4056 5.20895C55.6408 5.41076 56.1997 5.59888 57.0824 5.77332C59.2674 6.21798 60.8351 6.66834 61.7853 7.1244C62.7355 7.58045 63.4229 8.14539 63.8473 8.81922C64.2805 9.50276 64.5041 10.2868 64.4931 11.0835C64.4983 12.0483 64.1992 12.9927 63.6339 13.7959C63.0456 14.6335 62.2086 15.2879 61.2282 15.6772C60.1972 16.1047 58.8984 16.3185 57.332 16.3185C54.5814 16.3185 52.6761 15.818 51.6162 14.8169C50.5562 13.8159 49.9533 12.5418 49.8074 10.9946ZM1.13412 16.062V0.760684H9.4655C11.0102 0.760684 12.1908 0.88553 13.0071 1.13522C13.8113 1.37807 14.5065 1.86806 14.9824 2.52734C15.5003 3.25909 15.7639 4.12534 15.7366 5.00544C15.7576 5.77347 15.5576 6.53246 15.1578 7.20135C14.7742 7.82143 14.231 8.33973 13.5787 8.70805C13.0303 8.99405 12.4385 9.19827 11.8242 9.31347C12.2838 9.44146 12.7218 9.63093 13.1247 9.87613C13.4242 10.1115 13.6937 10.3789 13.9278 10.6731C14.1913 10.9655 14.4245 11.281 14.6242 11.6154L17.0444 16.062H11.3955L8.72569 11.3811C8.38684 10.7757 8.08538 10.3824 7.82129 10.2011C7.46142 9.96528 7.03271 9.84152 6.59492 9.84706H6.14995V16.062H1.13412ZM6.14995 6.95679H8.26264C8.70975 6.92523 9.15292 6.8554 9.58669 6.74815C9.91083 6.68935 10.1999 6.5179 10.397 6.26758C10.6055 6.01472 10.7165 5.70223 10.7118 5.38169C10.7254 5.16888 10.6877 4.95593 10.6015 4.75891C10.5153 4.5619 10.3829 4.38596 10.2143 4.24439C9.88393 3.97988 9.26231 3.84762 8.34946 3.84762H6.14995V6.95679ZM0 29.1554L4.75536 28.8749C4.85906 29.6057 5.06889 30.1621 5.38482 30.5441C5.89491 31.1632 6.6323 31.4727 7.597 31.4727C8.30967 31.4727 8.85955 31.3143 9.24663 30.9973C9.4239 30.8662 9.56789 30.6992 9.66804 30.5086C9.7682 30.318 9.82198 30.1087 9.82545 29.8959C9.82226 29.692 9.77206 29.4911 9.67834 29.3074C9.58462 29.1237 9.44964 28.9615 9.28281 28.8322C8.92105 28.5198 8.06789 28.2245 6.72334 27.9463C4.53107 27.4788 2.96765 26.8597 2.0331 26.089C1.57839 25.7284 1.21531 25.2757 0.970771 24.7644C0.726229 24.2531 0.606489 23.6964 0.620421 23.1354C0.624425 22.3431 0.876154 21.5696 1.34395 20.9122C1.87877 20.1714 2.63424 19.5976 3.51452 19.2635C4.47921 18.8633 5.80567 18.6632 7.4939 18.6632C9.56076 18.6632 11.1368 19.0269 12.2221 19.7543C13.3074 20.4817 13.9532 21.6379 14.1594 23.2227L9.45645 23.4843C9.33587 22.8002 9.07298 22.2991 8.66781 21.981C8.26264 21.6629 7.70854 21.5067 7.00552 21.5124C6.42549 21.5124 5.98836 21.6265 5.69413 21.8545C5.55572 21.9551 5.44384 22.0847 5.36727 22.233C5.2907 22.3814 5.25151 22.5445 5.25278 22.7096C5.2569 22.838 5.29157 22.9638 5.3542 23.0778C5.41682 23.1918 5.50581 23.291 5.61454 23.368C5.84969 23.5698 6.40861 23.7574 7.29131 23.9307C9.47635 24.3753 11.044 24.8257 11.9942 25.2818C12.9444 25.7378 13.6318 26.3028 14.0563 26.9766C14.4892 27.6602 14.7127 28.4441 14.702 29.2409C14.7074 30.2057 14.4083 31.1501 13.8428 31.9533C13.2545 32.7908 12.4175 33.4453 11.4371 33.8345C10.4061 34.2621 9.10735 34.4759 7.54092 34.4759C4.79033 34.4759 2.88505 33.9753 1.82509 32.9743C0.765126 31.9733 0.156763 30.7003 0 29.1554ZM29.4836 27.9565L33.8645 29.2084C33.6222 30.2592 33.1483 31.2499 32.4735 32.1158C31.8587 32.8809 31.0501 33.4872 30.1221 33.879C29.1839 34.2746 27.9901 34.4724 26.5407 34.4724C24.7825 34.4724 23.3463 34.2313 22.2321 33.749C21.1178 33.2667 20.1531 32.4168 19.338 31.1991C18.5276 29.9826 18.1231 28.4257 18.1243 26.5285C18.1243 23.9997 18.8357 22.0551 20.2587 20.695C21.6816 19.3348 23.6954 18.6552 26.3001 18.6564C28.3392 18.6564 29.9412 19.0463 31.1061 19.8262C32.271 20.606 33.1368 21.8032 33.7035 23.4176L29.29 24.3463C29.1864 23.9823 29.0228 23.636 28.8053 23.3201C28.538 22.9692 28.1865 22.6832 27.7797 22.4855C27.3581 22.2869 26.8923 22.1866 26.4213 22.1931C25.289 22.1931 24.4213 22.6241 23.8184 23.486C23.3602 24.1256 23.1317 25.1295 23.1329 26.4977C23.1329 28.192 23.4054 29.3538 23.9504 29.9831C24.4955 30.6125 25.2606 30.9266 26.2458 30.9255C27.2009 30.9255 27.9244 30.6718 28.4164 30.1644C28.9084 29.6571 29.2641 28.9211 29.4836 27.9565ZM37.7155 18.9215H42.7132V24.271H48.1758V18.9215H53.1953V34.2159H48.1758V28.0335H42.7132V34.221H37.7155V18.9215ZM56.3064 26.5781C56.3064 24.0835 57.042 22.1395 58.5132 20.7463C59.9843 19.353 62.0343 18.6575 64.6631 18.6598C67.3546 18.6598 69.4287 19.3439 70.8854 20.7121C72.3421 22.0802 73.0723 23.994 73.0759 26.4532C73.0759 28.2421 72.7575 29.7084 72.1208 30.8519C71.5012 31.9804 70.5412 32.9096 69.3624 33.5216C68.1565 34.1578 66.6576 34.4759 64.8657 34.4759C63.0424 34.4759 61.5351 34.2011 60.3437 33.6515C59.1196 33.078 58.1067 32.1692 57.4369 31.0435C56.682 29.8554 56.3052 28.367 56.3064 26.5781ZM61.3042 26.6003C61.3042 28.1452 61.6056 29.2546 62.2086 29.9284C62.8115 30.6022 63.6375 30.9391 64.6866 30.9391C65.7611 30.9391 66.5925 30.6091 67.181 29.9489C67.7694 29.2888 68.0637 28.103 68.0637 26.3917C68.0637 24.9517 67.7562 23.8993 67.1412 23.2346C66.5262 22.5699 65.6929 22.2381 64.6414 22.2393C64.1842 22.2237 63.7292 22.3061 63.3104 22.4802C62.8916 22.6544 62.5199 22.9158 62.223 23.2449C61.6116 23.929 61.3054 25.0475 61.3042 26.6003Z" fill="#F4EDED"/>
<path d="M70.9559 26.5781C70.9559 24.0835 71.6915 22.1395 73.1627 20.7463C74.6338 19.353 76.6838 18.6575 79.3126 18.6598C82.0066 18.6598 84.0813 19.3439 85.5367 20.7121C86.9922 22.0802 87.72 23.9945 87.72 26.455C87.72 28.2438 87.4022 29.7101 86.7667 30.8536C86.1466 31.9818 85.1867 32.9108 84.0083 33.5233C82.8024 34.1595 81.3035 34.4776 79.5116 34.4776C77.6871 34.4776 76.1798 34.2028 74.9896 33.6533C73.7654 33.0793 72.752 32.1706 72.081 31.0452C71.331 29.856 70.9559 28.367 70.9559 26.5781ZM75.9555 26.6003C75.9555 28.1452 76.257 29.2546 76.8599 29.9284C77.4628 30.6022 78.2901 30.9397 79.3416 30.9409C80.416 30.9409 81.2475 30.6108 81.8359 29.9506C82.4244 29.2905 82.7186 28.1047 82.7186 26.3934C82.7186 24.9534 82.4117 23.901 81.7979 23.2363C81.1841 22.5716 80.3509 22.2398 79.2982 22.241C78.8402 22.2243 78.3842 22.306 77.9644 22.4799C77.5446 22.6537 77.1719 22.9153 76.8744 23.2449C76.2606 23.929 75.9543 25.0474 75.9555 26.6003Z" fill="#F4EDED"/>
<path d="M87.199 18.9214H92.1986V30.45H100V34.2125H87.199V18.9214Z" fill="#F4EDED"/>
</svg>
