<svg width="38" height="28" viewBox="0 0 38 28" fill="none" xmlns="http://www.w3.org/2000/svg">
<path d="M19 24.5966C18.763 24.5964 18.5346 24.531 18.3597 24.4132L9.1314 18.2H5.5689C5.31694 18.2 5.0753 18.1262 4.89715 17.995C4.71899 17.8637 4.6189 17.6856 4.6189 17.5V10.5C4.6189 10.3143 4.71899 10.1363 4.89715 10.005C5.0753 9.87374 5.31694 9.79999 5.5689 9.79999H9.1314L18.3597 3.58679C18.4957 3.49534 18.6649 3.435 18.8466 3.41309C19.0283 3.39118 19.2147 3.40865 19.3832 3.46338C19.5517 3.51811 19.695 3.60774 19.7956 3.72137C19.8962 3.83499 19.9499 3.96771 19.95 4.10339V23.8966C19.95 24.0822 19.8499 24.2603 19.6717 24.3916C19.4936 24.5228 19.252 24.5966 19 24.5966ZM6.5189 16.8H9.5C9.73701 16.8001 9.96538 16.8655 10.1403 16.9834L18.05 22.3034V5.69099L10.1403 11.011C9.96654 11.1309 9.73803 11.1983 9.5 11.2H6.5189V16.8Z" fill="#6667AB"/>
<path d="M22.686 17.1542C22.4983 17.1542 22.3147 17.1131 22.1586 17.0363C22.0025 16.9595 21.8807 16.8503 21.8088 16.7225C21.7368 16.5947 21.7178 16.4541 21.7543 16.3184C21.7907 16.1827 21.8809 16.058 22.0134 15.96C22.7179 15.4398 23.1136 14.7349 23.1136 14C23.1136 13.2651 22.7179 12.5602 22.0134 12.04C21.8404 11.908 21.7446 11.7312 21.7468 11.5476C21.7489 11.3641 21.8488 11.1885 22.025 11.0587C22.2011 10.9289 22.4394 10.8553 22.6885 10.8537C22.9376 10.8521 23.1775 10.9227 23.3567 11.0502C24.4169 11.8331 25.0124 12.894 25.0124 14C25.0124 15.106 24.4169 16.1669 23.3567 16.9498C23.1787 17.0807 22.9375 17.1542 22.686 17.1542Z" fill="#6667AB"/>
<path d="M26.0452 19.6294C25.8571 19.6297 25.6731 19.5887 25.5165 19.5118C25.36 19.4349 25.238 19.3255 25.1659 19.1975C25.0939 19.0694 25.0751 18.9284 25.1119 18.7925C25.1486 18.6565 25.2394 18.5317 25.3726 18.4338C26.163 17.8516 26.79 17.1604 27.2177 16.3996C27.6455 15.6389 27.8657 14.8235 27.8657 14C27.8657 13.1765 27.6455 12.3611 27.2177 11.6004C26.79 10.8396 26.163 10.1484 25.3726 9.5662C25.2819 9.50163 25.2095 9.42439 25.1597 9.33899C25.1099 9.25358 25.0837 9.16173 25.0826 9.06878C25.0815 8.97584 25.1056 8.88366 25.1533 8.79764C25.2011 8.71161 25.2716 8.63345 25.3608 8.56773C25.45 8.502 25.5561 8.45002 25.6728 8.41483C25.7896 8.37963 25.9147 8.36192 26.0408 8.36273C26.167 8.36354 26.2916 8.38285 26.4075 8.41953C26.5234 8.45622 26.6283 8.50955 26.7159 8.5764C27.6827 9.28858 28.4496 10.1341 28.9728 11.0647C29.496 11.9953 29.7653 12.9927 29.7653 14C29.7653 15.0073 29.496 16.0047 28.9728 16.9353C28.4496 17.8659 27.6827 18.7114 26.7159 19.4236C26.5382 19.555 26.2969 19.629 26.0452 19.6294Z" fill="#6667AB"/>
<path d="M28.88 21.7182C28.6923 21.7182 28.5087 21.6771 28.3526 21.6003C28.1965 21.5235 28.0747 21.4143 28.0028 21.2865C27.9308 21.1587 27.9118 21.0181 27.9483 20.8824C27.9847 20.7467 28.0749 20.622 28.2074 20.524C30.5553 18.7936 31.8743 16.4469 31.8743 14C31.8743 11.5531 30.5553 9.20641 28.2074 7.47599C28.1167 7.41142 28.0443 7.33418 27.9945 7.24878C27.9447 7.16337 27.9185 7.07152 27.9174 6.97857C27.9163 6.88563 27.9404 6.79345 27.9881 6.70743C28.0359 6.6214 28.1064 6.54324 28.1956 6.47752C28.2848 6.41179 28.3909 6.35981 28.5077 6.32462C28.6244 6.28942 28.7495 6.27171 28.8756 6.27252C29.0018 6.27333 29.1264 6.29264 29.2423 6.32932C29.3583 6.36601 29.4631 6.41934 29.5507 6.48619C30.8899 7.47291 31.9521 8.64432 32.6769 9.93355C33.4016 11.2228 33.7746 12.6045 33.7746 14C33.7746 15.3954 33.4016 16.7772 32.6769 18.0664C31.9521 19.3557 30.8899 20.5271 29.5507 21.5138C29.3727 21.6447 29.1315 21.7182 28.88 21.7182Z" fill="#6667AB"/>
</svg>
