<svg width="111" height="110" viewBox="0 0 111 110" fill="none" xmlns="http://www.w3.org/2000/svg">
<path fill-rule="evenodd" clip-rule="evenodd" d="M0.812605 33.362C0.764213 30.6421 2.3596 28.4198 4.86743 27.7137L102.515 0.221579C104.53 -0.345644 106.884 0.364448 108.566 2.0466C110.249 3.72876 110.959 6.08325 110.392 8.09794L82.8994 105.746C82.1933 108.253 79.971 109.849 77.2511 109.8C74.9159 109.759 72.5704 108.508 71.0405 106.489L42.1949 68.4182L4.12394 39.5726C2.10469 38.0427 0.854154 35.6972 0.812605 33.362ZM49.5737 66.7491L75.9658 101.582L102.196 8.41739L9.03123 34.6473L43.864 61.0394L67.6875 37.2158C69.028 35.8754 71.3928 36.0669 72.9695 37.6436C74.5462 39.2203 74.7377 41.5851 73.3973 42.9256L49.5737 66.7491Z" fill="#1C1C1C"/>
</svg>
