<svg width="150" height="136" viewBox="0 0 150 136" fill="none" xmlns="http://www.w3.org/2000/svg">
<path d="M10.4651 5.1C10.4651 2.28335 8.12242 0 5.23256 0C2.3427 0 0 2.28335 0 5.1V130.9C0 133.717 2.3427 136 5.23256 136H132.558C135.448 136 137.791 133.717 137.791 130.9C137.791 128.083 135.448 125.8 132.558 125.8H10.4651V5.1Z" fill="#1C1C1C"/>
<path d="M148.467 39.3062C150.511 37.3146 150.511 34.0854 148.467 32.0938C146.424 30.1021 143.111 30.1021 141.067 32.0938L101.163 70.9875L75.2116 45.6938C73.1682 43.7021 69.8551 43.7021 67.8116 45.6938L25.9512 86.4938C23.9077 88.4854 23.9077 91.7146 25.9512 93.7062C27.9946 95.6979 31.3077 95.6979 33.3511 93.7062L71.5116 56.5125L97.4628 81.8063C99.5063 83.7979 102.819 83.7979 104.863 81.8063L148.467 39.3062Z" fill="#1C1C1C"/>
</svg>
